<?xml version="1.0" encoding="UTF-8" standalone="no" ?>
<!DOCTYPE svg PUBLIC "-//W3C//DTD SVG 1.1//EN" "http://www.w3.org/Graphics/SVG/1.1/DTD/svg11.dtd">
<svg xmlns="http://www.w3.org/2000/svg" xmlns:xlink="http://www.w3.org/1999/xlink" version="1.1" width="1080" height="1080" viewBox="0 0 1080 1080" xml:space="preserve">
<desc>Created with Fabric.js 5.2.4</desc>
<defs>
</defs>
<g transform="matrix(1 0 0 1 540 540)" id="7009d7ca-5878-4ad5-9d79-3fef4c629e10"  >
<rect style="stroke: none; stroke-width: 1; stroke-dasharray: none; stroke-linecap: butt; stroke-dashoffset: 0; stroke-linejoin: miter; stroke-miterlimit: 4; fill: rgb(255,255,255); fill-rule: nonzero; opacity: 1; visibility: hidden;" vector-effect="non-scaling-stroke"  x="-540" y="-540" rx="0" ry="0" width="1080" height="1080" />
</g>
<g transform="matrix(1 0 0 1 540 540)" id="d255d34f-59d9-494f-ac88-0b788296ccbf"  >
</g>
<g transform="matrix(1 0 0 1 540 540)" id="2c910231-4a30-4707-9a70-1ebdf9b8db1f"  >
<path style="stroke: rgb(0,0,0); stroke-width: 0; stroke-dasharray: none; stroke-linecap: butt; stroke-dashoffset: 0; stroke-linejoin: miter; stroke-miterlimit: 4; fill: rgb(8,8,9); fill-rule: nonzero; opacity: 1;" vector-effect="non-scaling-stroke"  transform=" translate(-249.54, -250.5)" d="M 412.112 89.4833 C 392.896 101.178 379.928 122.787 370.632 158.607 C 365.181 179.599 350.434 211.596 343.585 217.28 C 340.245 220.055 320.514 221.728 273.606 223.22 C 237.677 224.362 195.643 226.117 180.198 227.126 C 152.554 228.925 151.759 228.792 129.155 218.463 C 113.181 211.165 105.378 205.833 103.515 200.948 C 100.867 193.999 94.9521 190.173 86.844 190.173 C 84.0684 190.173 82.6525 193.477 82.6525 199.945 C 82.6525 206.753 80.1872 212.077 74.5236 217.498 C 70.0513 221.775 63.8497 230.004 60.7371 235.78 C 60.7371 235.78 54.197 241.71 55.0824 246.283 C 55.8307 250.148 61.9934 253.622 61.9934 253.622 C 66.9358 258.872 72.0111 260.963 79.8118 260.963 C 101.272 260.963 114.99 280.392 116.031 312.248 L 116.646 331.155 L 98.9101 350.271 C 62.1205 389.919 59.1676 393.633 60.879 398.086 C 63.9739 406.133 73.8881 402.773 89.4807 388.394 C 97.9169 380.613 108.638 372.605 113.3 370.602 C 117.961 368.597 129.622 360.934 139.208 353.571 C 148.797 346.209 158.948 340.617 161.768 341.142 C 176.391 343.861 182.947 388.612 170.949 403.829 C 163.231 413.622 166.557 418.105 180.541 416.769 C 194.393 415.445 197.547 407.165 200.178 365.216 L 202.368 330.278 L 243.751 331.275 C 266.943 331.836 288.264 333.78 292.255 335.7 C 302.66 340.705 316.91 359.689 316.91 368.54 C 316.91 377.976 308.909 387.309 296.219 392.665 C 289.97 395.305 286.612 398.771 286.612 402.582 C 286.612 407.416 288.607 408.442 297.992 408.442 C 310.815 408.442 326.298 398.735 342.036 380.826 C 352.837 368.535 352.979 367.862 348.19 351.911 C 343.514 336.34 347.549 332.393 360.91 339.466 C 366.381 342.363 380.818 348.118 392.996 352.253 C 410.265 358.12 415.97 361.523 418.943 367.723 C 422.603 375.36 423.806 388.595 421.973 401.069 C 421.326 405.475 422.978 407.162 428.497 407.732 C 440.862 409.012 444.636 404.384 444.019 388.695 C 443.711 380.899 441.089 366.033 438.195 355.657 C 433.832 340.018 430.741 334.974 420.12 326.161 C 405.665 314.165 401.991 308.165 393.256 282.289 C 389.875 272.275 384.451 259.359 381.199 253.583 C 373.254 239.47 373.726 231.872 384.096 206.927 C 388.938 195.279 395.388 175.794 398.429 163.627 C 403.623 142.85 411.701 124.872 425.949 102.379 C 432.18 92.542 431.689 83.9794 424.894 84 C 422.813 84.0059 417.061 86.4718 412.112 89.4833 Z" stroke-linecap="round" />
</g>
</svg>